<?xml version="1.0" standalone="no"?><!DOCTYPE svg PUBLIC "-//W3C//DTD SVG 1.1//EN" "http://www.w3.org/Graphics/SVG/1.1/DTD/svg11.dtd"><svg t="1564230766674" class="icon" viewBox="0 0 1024 1024" version="1.1" xmlns="http://www.w3.org/2000/svg" p-id="4825" xmlns:xlink="http://www.w3.org/1999/xlink" width="200" height="200"><defs><style type="text/css"></style></defs><path d="M426.666667 597.333333v128a42.666667 42.666667 0 0 1-85.333334 0V298.666667a42.666667 42.666667 0 0 1 42.666667-42.666667h213.333333a170.666667 170.666667 0 1 1 0 341.333333h-170.666666z m302.762666-548.992a42.666667 42.666667 0 1 1-36.266666 77.226667A424.832 424.832 0 0 0 512 85.333333C276.352 85.333333 85.333333 276.352 85.333333 512s191.018667 426.666667 426.666667 426.666667 426.666667-191.018667 426.666667-426.666667c0-62.848-13.568-123.733333-39.424-179.413333a42.666667 42.666667 0 0 1 77.397333-35.968A510.208 510.208 0 0 1 1024 512c0 282.752-229.248 512-512 512S0 794.752 0 512 229.248 0 512 0c76.117333 0 149.973333 16.64 217.429333 48.341333zM426.666667 512h170.666666a85.333333 85.333333 0 1 0 0-170.666667h-170.666666v170.666667z" fill="#2b90d9" p-id="4826"></path></svg>