<?xml version="1.0" standalone="no"?><!DOCTYPE svg PUBLIC "-//W3C//DTD SVG 1.1//EN" "http://www.w3.org/Graphics/SVG/1.1/DTD/svg11.dtd"><svg t="1564312519940" class="icon" viewBox="0 0 1024 1024" version="1.1" xmlns="http://www.w3.org/2000/svg" p-id="10150" xmlns:xlink="http://www.w3.org/1999/xlink" width="200" height="200"><defs><style type="text/css"></style></defs><path d="M170.666667 128h682.666666a42.666667 42.666667 0 0 1 42.666667 42.666667v682.666666a42.666667 42.666667 0 0 1-42.666667 42.666667H170.666667a42.666667 42.666667 0 0 1-42.666667-42.666667V170.666667a42.666667 42.666667 0 0 1 42.666667-42.666667z m42.666666 85.333333v597.333334h597.333334V213.333333H213.333333z m170.666667 85.333334h149.333333a149.333333 149.333333 0 0 1 0 298.666666H469.333333v128H384V298.666667z m85.333333 85.333333v128h64a64 64 0 0 0 0-128H469.333333z" p-id="10151" fill="#2b90d9" data-spm-anchor-id="a313x.7781069.0.i4" class="selected"></path></svg>