<?xml version="1.0" standalone="no"?><!DOCTYPE svg PUBLIC "-//W3C//DTD SVG 1.1//EN" "http://www.w3.org/Graphics/SVG/1.1/DTD/svg11.dtd"><svg t="1564219139809" class="icon" viewBox="0 0 1024 1024" version="1.1" xmlns="http://www.w3.org/2000/svg" p-id="1895" xmlns:xlink="http://www.w3.org/1999/xlink" width="200" height="200"><defs><style type="text/css"></style></defs><path d="M552.209067 29.354667l358.058666 261.393066a68.266667 68.266667 0 0 1 27.989334 55.125334v583.4752a68.266667 68.266667 0 0 1-68.266667 68.266666H153.941333a68.266667 68.266667 0 0 1-68.266666-68.266666V345.873067a68.266667 68.266667 0 0 1 27.989333-55.125334L471.722667 29.354667a68.266667 68.266667 0 0 1 80.4864 0z m-232.106667 691.268266a42.632533 42.632533 0 0 0 0 85.230934h379.426133a42.632533 42.632533 0 0 0 0-85.230934H320.136533z m311.7056-328.9088a34.133333 34.133333 0 0 0-34.133333 34.133334v68.266666a34.133333 34.133333 0 0 0 34.133333 34.133334h68.266667a34.133333 34.133333 0 0 0 34.133333-34.133334v-68.266666a34.133333 34.133333 0 0 0-34.133333-34.133334h-68.266667z" p-id="1896" fill="#9baec8"></path></svg>